<svg width="47" height="47" viewBox="0 0 47 47" fill="none" xmlns="http://www.w3.org/2000/svg">
<mask id="mask0_84_50" style="mask-type:alpha" maskUnits="userSpaceOnUse" x="0" y="0" width="47" height="47">
<rect width="47" height="47" fill="#D9D9D9"/>
</mask>
<g mask="url(#mask0_84_50)">
<path d="M11.4562 33.4875C13.1208 32.2146 14.9812 31.2109 17.0375 30.4766C19.0937 29.7422 21.2479 29.375 23.5 29.375C25.752 29.375 27.9062 29.7422 29.9625 30.4766C32.0187 31.2109 33.8791 32.2146 35.5437 33.4875C36.6861 32.1493 37.5755 30.6316 38.2119 28.9344C38.8484 27.2372 39.1666 25.4257 39.1666 23.5C39.1666 19.159 37.6408 15.4627 34.589 12.4109C31.5373 9.35921 27.8409 7.83334 23.5 7.83334C19.159 7.83334 15.4626 9.35921 12.4109 12.4109C9.35916 15.4627 7.83329 19.159 7.83329 23.5C7.83329 25.4257 8.15152 27.2372 8.78798 28.9344C9.42444 30.6316 10.3138 32.1493 11.4562 33.4875ZM23.5 25.4583C21.5743 25.4583 19.9505 24.7974 18.6286 23.4755C17.3067 22.1537 16.6458 20.5299 16.6458 18.6042C16.6458 16.6785 17.3067 15.0547 18.6286 13.7328C19.9505 12.4109 21.5743 11.75 23.5 11.75C25.4257 11.75 27.0494 12.4109 28.3713 13.7328C29.6932 15.0547 30.3541 16.6785 30.3541 18.6042C30.3541 20.5299 29.6932 22.1537 28.3713 23.4755C27.0494 24.7974 25.4257 25.4583 23.5 25.4583ZM23.5 43.0833C20.7909 43.0833 18.2451 42.5693 15.8625 41.5411C13.4798 40.513 11.4073 39.1177 9.64475 37.3552C7.88225 35.5927 6.48694 33.5201 5.45881 31.1375C4.43069 28.7549 3.91663 26.209 3.91663 23.5C3.91663 20.791 4.43069 18.2451 5.45881 15.8625C6.48694 13.4799 7.88225 11.4073 9.64475 9.6448C11.4073 7.8823 13.4798 6.48698 15.8625 5.45886C18.2451 4.43073 20.7909 3.91667 23.5 3.91667C26.209 3.91667 28.7548 4.43073 31.1375 5.45886C33.5201 6.48698 35.5927 7.8823 37.3552 9.6448C39.1177 11.4073 40.513 13.4799 41.5411 15.8625C42.5692 18.2451 43.0833 20.791 43.0833 23.5C43.0833 26.209 42.5692 28.7549 41.5411 31.1375C40.513 33.5201 39.1177 35.5927 37.3552 37.3552C35.5927 39.1177 33.5201 40.513 31.1375 41.5411C28.7548 42.5693 26.209 43.0833 23.5 43.0833ZM23.5 39.1667C25.2298 39.1667 26.8618 38.9137 28.3958 38.4078C29.9298 37.9019 31.3333 37.1757 32.6062 36.2292C31.3333 35.2826 29.9298 34.5564 28.3958 34.0505C26.8618 33.5446 25.2298 33.2917 23.5 33.2917C21.7701 33.2917 20.1382 33.5446 18.6041 34.0505C17.0701 34.5564 15.6666 35.2826 14.3937 36.2292C15.6666 37.1757 17.0701 37.9019 18.6041 38.4078C20.1382 38.9137 21.7701 39.1667 23.5 39.1667ZM23.5 21.5417C24.3486 21.5417 25.0503 21.2642 25.6052 20.7094C26.16 20.1545 26.4375 19.4528 26.4375 18.6042C26.4375 17.7556 26.16 17.0538 25.6052 16.499C25.0503 15.9441 24.3486 15.6667 23.5 15.6667C22.6513 15.6667 21.9496 15.9441 21.3948 16.499C20.8399 17.0538 20.5625 17.7556 20.5625 18.6042C20.5625 19.4528 20.8399 20.1545 21.3948 20.7094C21.9496 21.2642 22.6513 21.5417 23.5 21.5417Z" fill="#4C956C"/>
</g>
</svg>
