<svg width="37" height="37" viewBox="0 0 37 37" fill="none" xmlns="http://www.w3.org/2000/svg">
<path d="M4.20833 32.7917H7.11771L27.075 12.8344L24.1656 9.925L4.20833 29.8823V32.7917ZM0.125 36.875V28.1979L27.075 1.29896C27.4833 0.924653 27.9342 0.635417 28.4276 0.43125C28.921 0.227083 29.4399 0.125 29.9844 0.125C30.5288 0.125 31.0563 0.227083 31.5667 0.43125C32.0771 0.635417 32.5194 0.941667 32.8938 1.35L35.701 4.20833C36.1094 4.58264 36.4071 5.025 36.5943 5.53542C36.7814 6.04583 36.875 6.55625 36.875 7.06667C36.875 7.61111 36.7814 8.13003 36.5943 8.62344C36.4071 9.11684 36.1094 9.56771 35.701 9.97604L8.80208 36.875H0.125ZM25.5948 11.4052L24.1656 9.925L27.075 12.8344L25.5948 11.4052Z" fill="#7C7C7C"/>
</svg>
